<svg version="1" xmlns="http://www.w3.org/2000/svg" width="170.667" height="170.667" viewBox="0 0 128.000000 128.000000"><path d="M23.2 11.6c-5.7 2.8-9.6 6.9-12.3 12.9C9.2 28.1 9 31.8 9 64s.2 35.9 1.9 39.5c2.7 6 6.6 10.1 12.3 12.9l5.2 2.6h71.2l5.2-2.6c5.7-2.8 9.6-6.9 12.3-12.9 1.7-3.6 1.9-7.3 1.9-39.5s-.2-35.9-1.9-39.5c-2.7-6-6.6-10.1-12.3-12.9L99.6 9H28.4l-5.2 2.6zm58 27.5c5.5 1.2 11.9 3.9 15.3 6.5 1.9 1.4 1.7 1.7-4.2 6.9-4.6 4.1-7.2 7.6-10.7 14.2-7.8 15-10.3 16.8-23.8 16.8-10 0-9.8-.2-9.8 9.7V99h-7v-4.8c0-6.2 2.2-14.1 6-21.8 3.9-7.9 13-16.5 22.5-21.1l7-3.5-4.8.6c-11.2 1.4-24.8 11.8-30.2 23.2l-2.9 5.9-.9-4c-.4-2.2-.7-7.2-.4-11.1.3-5.8.9-7.9 3.3-11.5 3.3-4.9 11.5-10.3 17.8-11.8 5.9-1.3 16.6-1.3 22.8 0z"/></svg>